<svg viewBox="0 0 48 48" fill="none" xmlns="http://www.w3.org/2000/svg">
    <style>
        path {
            stroke: #40916c;
        }
        .bg-leaf {
            fill: #40916c;
            fill-opacity: 0.2;
        }
        @media (prefers-color-scheme: dark) {
            path {
                stroke: #74c69d;
            }
            .bg-leaf {
                fill: #74c69d;
                fill-opacity: 0.25;
            }
        }
    </style>
    <!-- Leaf shape -->
    <path class="bg-leaf" d="M24 4C24 4 8 14 8 28C8 36.837 15.163 44 24 44C32.837 44 40 36.837 40 28C40 14 24 4 24 4Z" />
    <path d="M24 4C24 4 8 14 8 28C8 36.837 15.163 44 24 44C32.837 44 40 36.837 40 28C40 14 24 4 24 4Z" stroke-width="2" stroke-linecap="round" stroke-linejoin="round"/>
    <!-- Leaf vein -->
    <path d="M24 12V36" stroke-width="2" stroke-linecap="round"/>
    <path d="M24 20L16 26" stroke-width="1.5" stroke-linecap="round"/>
    <path d="M24 20L32 26" stroke-width="1.5" stroke-linecap="round"/>
    <path d="M24 28L18 33" stroke-width="1.5" stroke-linecap="round"/>
    <path d="M24 28L30 33" stroke-width="1.5" stroke-linecap="round"/>
</svg>
